<?xml version="1.0" standalone="no"?><!DOCTYPE svg PUBLIC "-//W3C//DTD SVG 1.1//EN" "http://www.w3.org/Graphics/SVG/1.1/DTD/svg11.dtd"><svg t="1749549324172" class="icon" viewBox="0 0 2214 1024" version="1.1" xmlns="http://www.w3.org/2000/svg" p-id="5898" xmlns:xlink="http://www.w3.org/1999/xlink" width="432.421875" height="200"><path d="M354.71640992 187.57670004c11.11697608-36.66464333 48.31608951-51.95048573 82.52217052-59.53996007-9.51356655 35.59570312-21.59258835 70.44314795-32.06820139 105.71816917 82.41527681 3.63439622 165.79259934-5.87917033 247.56651235 4.59644194 9.29977836 17.9581929 10.68940046 38.48184105 15.39273611 57.82965606-46.7126792 2.88613792-93.53225289 2.03098592-140.2449321 2.1378804-0.64136381 63.92261381-2.24477411 127.8452284-6.73432234 191.66094772 48.10230131 1.71030401 96.41839082-1.92409221 144.41379842 2.35166783 14.32379668 16.8892527 12.50659819 41.26108526 17.74440471 61.67784047-55.05041184 1.17583391-110.2077174 0.64136381-165.36502296 0.5344701-5.23780652 35.70259684-12.07902257 71.08451254-20.63054263 106.03885108 13.57553839-8.12394444 27.15107677-16.3547826 40.72661516-24.37183256 30.46479109 35.48880941 63.49503819 68.83973843 91.60816069 106.35953298 23.62357504 30.5716848 12.82728009 71.40519444 9.72735397 106.46642747-54.08836535-50.98843924-96.5252853-112.66627971-145.48273862-168.35805536-22.44774035 64.67087211-46.07131539 132.54856404-95.45634433 181.93359375C361.87830787 897.13909394 308.53820004 894.89431983 261.82552083 896.17704823v-4.81023014c104.32854707-81.66701852 178.61987944-202.77792458 188.66791609-336.50232253-58.79170177-0.42757639-117.47650984 0.5344701-176.26821161-0.96204649 9.72735397-20.30986073 11.33076427-49.27813522 33.67161092-60.50200578 49.17124151-6.52053414 99.09074132-1.38962211 148.47577102-2.77924422 2.24477411-64.24329572 4.38265451-128.59348592 4.06197184-192.83678163-25.22698457 0.32068191-50.56086362 0.7482583-75.78784819 1.60340953-10.47561227 25.01319715-19.45470872 52.48495583-41.15419155 70.22936053-19.77539063 16.78235822-46.1782091 21.05811902-70.33625424 27.68554688 30.67857928-68.51905652 56.86760957-138.85531076 81.56012481-209.72603434zM1229.85761574 211.4140625c228.64627295-14.85826678 458.36148611-27.15107677 684.97677315-61.1433696 23.83736246 24.90630266 6.94811053 60.50200579-0.10689371 88.82891647-98.44937674 4.59644194-196.89875424 10.26182407-295.34813175 16.67546451V522.68940046c116.40756964-0.32068191 232.92203299-2.56545602 349.32960339-2.24477411-1.92409221 17.63751022-2.03098592 35.70259684-7.91015625 52.59184954-4.81023013 18.59955671-27.79244059 12.18591628-41.58176717 14.00311477-99.94589333-0.32068191-199.89178665-0.21378819-299.83767997-0.21378819-0.5344701 68.09148013 0.85515201 136.07606655-0.42757562 204.0606522 0 35.48880941-15.17894869 72.26034645-45.8575272 91.71505517-64.5639784 39.97835764-162.58577951 17.85129842-194.33329823-54.19525984 40.94040336-1.17583391 81.98770042 4.16886632 122.92810379 1.49651582 26.72350116-0.7482583 52.37806134-22.98221045 52.80563773-50.45396914 2.24477411-64.13640201 0-128.37969772 0.74825752-192.62299421-96.31149711-0.5344701-192.62299421 0.96204572-288.93449055-0.5344701-36.77153704 1.6034103-59.86064198-30.99926119-69.48110224-62.53299171 119.50749576-2.45856231 238.9080978-0.42757639 358.41559279-1.0689402-0.32068191-88.40134086 0.64136381-176.69578723-0.5344701-264.99023437-88.93581096 0.32068191-177.87162191 13.89622029-266.5936439 7.48257986-30.78547299-0.7482583-48.7436659-27.89933507-58.25723168-53.76768345zM710.99412307 223.49308507C821.30873418 223.27929687 931.73023978 223.38619059 1042.15174537 223.38619059v577.22761882c-42.43691917 0.7482583-84.98073283-1.92409221-127.41765201 1.17583392-40.94040336 17.63751022-75.46716628 47.56783121-115.55241763 67.23632812-7.05500424-22.98221045-14.11000849-45.8575272-21.37880092-68.73284471-22.23395293 0.21378819-44.57479958 0.21378819-66.80875174 0.32068267V223.49308507m63.92261381 64.13640201c-0.21378819 149.33092303-0.21378819 298.76873978 0 448.09966203 13.46864468 0.7482583 26.83039487 1.6034103 40.29903955 2.45856231 4.27576003 14.64447859 8.55152006 29.28895718 13.04106828 43.82654128 25.65456096-14.11000849 49.27813522-32.28198881 76.21542458-43.93343576 24.37183256-2.99303241 49.0643478-1.6034103 73.54307407-1.81719773V287.52259259c-67.66390451 0-135.43470197 0-203.09860648 0.10689449z" p-id="5899"></path><path d="M1805.69561169 324.40102411c19.34781424-26.18903106 52.16427392-3.74128993 74.07754417 6.19985224-37.62668904 54.72972994-78.67398611 107.00089757-120.68332966 158.31001871-16.8892527-12.82728009-33.67161092-25.76145467-50.24018172-38.90941666 32.81645891-41.47487346 63.28125-84.76694464 96.84596721-125.60045429zM1290.46651524 336.58694039c21.16501273-8.44462635 49.91949981-23.40978684 69.26731404-3.31371431 36.02327951 36.13017323 63.60193191 79.6360326 91.60816146 122.07295177-17.4237228 11.54455247-34.84744483 23.19599865-52.37806211 34.63365741-35.27502122-51.84359201-73.11549846-101.76309105-108.49741339-153.39289487z" p-id="5900"></path></svg>