<svg width="378" height="189" xmlns="http://www.w3.org/2000/svg" xmlns:xlink="http://www.w3.org/1999/xlink" overflow="hidden"><g><rect x="0" y="0" width="378" height="189" fill="#FFFFFF"/><path d="M16.5001 103.5 184.5 103.5" stroke="#D9D9D9" stroke-width="1.33333" stroke-miterlimit="8" stroke-dasharray="5.33333 4" fill="none" fill-rule="evenodd"/><path d="M89.5001 27.5001 89.5002 159.561" stroke="#D9D9D9" stroke-width="1.33333" stroke-miterlimit="8" stroke-dasharray="5.33333 4" fill="none" fill-rule="evenodd"/><path d="M47.6669 138.998C38.3695 128.276 49.3651 103.514 72.2262 83.6912 95.0874 63.8684 121.157 56.4911 130.454 67.2136 139.752 77.936 128.756 102.698 105.895 122.521 83.034 142.343 56.9643 149.721 47.6669 138.998Z" stroke="#042433" stroke-width="1.33333" stroke-miterlimit="8" fill="none" fill-rule="evenodd"/><path d="M45.0543 67.6222C54.2458 56.8089 80.3867 63.9295 103.442 83.5266 126.497 103.124 137.735 127.776 128.543 138.59 119.352 149.403 93.211 142.282 70.1561 122.685 47.1012 103.088 35.8627 78.4355 45.0543 67.6222Z" stroke="#042433" stroke-width="1.33333" stroke-miterlimit="8" stroke-dasharray="5.33333 4 1.33333 4" fill="none" fill-rule="evenodd"/><path d="M146 77 146 93.6058 144 93.6058 144 77ZM149 92.2724 145 100.272 141 92.2725Z"/><path d="M200.5 104.5 368.5 104.5" stroke="#D9D9D9" stroke-width="1.33333" stroke-miterlimit="8" stroke-dasharray="5.33333 4" fill="none" fill-rule="evenodd"/><path d="M273.5 28.5001 273.5 160.561" stroke="#D9D9D9" stroke-width="1.33333" stroke-miterlimit="8" stroke-dasharray="5.33333 4" fill="none" fill-rule="evenodd"/><path d="M231.667 139.752C222.37 129.03 233.365 104.268 256.226 84.4449 279.087 64.6221 305.157 57.2448 314.455 67.9673 323.752 78.6897 312.756 103.452 289.895 123.274 267.034 143.097 240.964 150.474 231.667 139.752Z" stroke="#042433" stroke-width="1.33333" stroke-miterlimit="8" fill="none" fill-rule="evenodd"/><path d="M229.054 68.3759C238.246 57.5626 264.387 64.6832 287.442 84.2803 310.497 103.877 321.735 128.53 312.544 139.343 303.352 150.157 277.211 143.036 254.156 123.439 231.101 103.842 219.863 79.1892 229.054 68.3759Z" stroke="#042433" stroke-width="1.33333" stroke-miterlimit="8" stroke-dasharray="5.33333 4 1.33333 4" fill="none" fill-rule="evenodd"/><path d="M331.063 87.8364 334.451 88.1572 337.669 89.0957 340.584 90.5818 343.126 92.552 345.226 94.9434 346.815 97.6926 347.82 100.735 348.172 104.015 347.475 108.57 345.484 112.69 342.364 116.127 339.48 117.907 338.78 116.773 341.584 115.042 341.441 115.161 344.432 111.865 344.326 112.024 346.231 108.08 346.172 108.269 346.841 103.899 346.837 104.071 346.502 100.947 346.532 101.085 345.57 98.1759 345.626 98.3003 344.105 95.6674 344.181 95.7738 342.166 93.4798 342.259 93.5668 339.817 91.6741 339.923 91.7411 337.12 90.312 337.236 90.3581 334.139 89.455 334.263 89.4787 330.937 89.1637ZM348.405 117.775 338.004 118.035 342.898 108.853C343.071 108.528 343.475 108.405 343.8 108.578 344.125 108.752 344.248 109.155 344.075 109.48L339.718 117.653 339.113 116.673 348.372 116.443C348.74 116.433 349.046 116.724 349.055 117.092 349.064 117.46 348.773 117.766 348.405 117.775Z"/></g></svg>